<mxfile host="65bd71144e">
    <diagram id="8kKO0bu-prLJW1U7KfQ0" name="ページ1">
        <mxGraphModel dx="886" dy="649" grid="1" gridSize="10" guides="1" tooltips="1" connect="1" arrows="1" fold="1" page="1" pageScale="1" pageWidth="827" pageHeight="1169" math="0" shadow="0">
            <root>
                <mxCell id="0"/>
                <mxCell id="1" parent="0"/>
                <mxCell id="22" style="edgeStyle=none;html=1;fontSize=18;" edge="1" parent="1" source="2">
                    <mxGeometry relative="1" as="geometry">
                        <mxPoint x="148" y="640.8333740234375" as="targetPoint"/>
                    </mxGeometry>
                </mxCell>
                <mxCell id="2" value="" style="rounded=0;whiteSpace=wrap;html=1;" vertex="1" parent="1">
                    <mxGeometry x="58" y="30" width="180" height="80" as="geometry"/>
                </mxCell>
                <mxCell id="6" value="&lt;b&gt;&lt;font style=&quot;font-size: 18px;&quot;&gt;User&lt;/font&gt;&lt;/b&gt;" style="text;html=1;align=center;verticalAlign=middle;resizable=0;points=[];autosize=1;strokeColor=none;fillColor=none;" vertex="1" parent="1">
                    <mxGeometry x="118" y="50" width="60" height="40" as="geometry"/>
                </mxCell>
                <mxCell id="19" style="edgeStyle=none;html=1;fontSize=18;" edge="1" parent="1" source="11">
                    <mxGeometry relative="1" as="geometry">
                        <mxPoint x="407.9999999999998" y="640" as="targetPoint"/>
                    </mxGeometry>
                </mxCell>
                <mxCell id="11" value="" style="rounded=0;whiteSpace=wrap;html=1;" vertex="1" parent="1">
                    <mxGeometry x="318" y="30" width="180" height="80" as="geometry"/>
                </mxCell>
                <mxCell id="12" value="&lt;b&gt;&lt;font style=&quot;font-size: 18px;&quot;&gt;Browser&lt;/font&gt;&lt;/b&gt;" style="text;html=1;align=center;verticalAlign=middle;resizable=0;points=[];autosize=1;strokeColor=none;fillColor=none;" vertex="1" parent="1">
                    <mxGeometry x="358" y="50" width="100" height="40" as="geometry"/>
                </mxCell>
                <mxCell id="21" style="edgeStyle=none;html=1;fontSize=18;" edge="1" parent="1" source="13">
                    <mxGeometry relative="1" as="geometry">
                        <mxPoint x="678" y="640" as="targetPoint"/>
                    </mxGeometry>
                </mxCell>
                <mxCell id="13" value="" style="rounded=0;whiteSpace=wrap;html=1;" vertex="1" parent="1">
                    <mxGeometry x="588" y="30" width="180" height="80" as="geometry"/>
                </mxCell>
                <mxCell id="14" value="&lt;b&gt;&lt;font style=&quot;font-size: 18px;&quot;&gt;Server&lt;/font&gt;&lt;/b&gt;" style="text;html=1;align=center;verticalAlign=middle;resizable=0;points=[];autosize=1;strokeColor=none;fillColor=none;" vertex="1" parent="1">
                    <mxGeometry x="638" y="50" width="80" height="40" as="geometry"/>
                </mxCell>
                <mxCell id="23" value="" style="endArrow=classic;html=1;fontSize=18;" edge="1" parent="1">
                    <mxGeometry width="50" height="50" relative="1" as="geometry">
                        <mxPoint x="150" y="200" as="sourcePoint"/>
                        <mxPoint x="410" y="200" as="targetPoint"/>
                    </mxGeometry>
                </mxCell>
                <mxCell id="24" value="" style="endArrow=classic;html=1;fontSize=18;" edge="1" parent="1">
                    <mxGeometry width="50" height="50" relative="1" as="geometry">
                        <mxPoint x="410" y="230" as="sourcePoint"/>
                        <mxPoint x="680" y="230" as="targetPoint"/>
                    </mxGeometry>
                </mxCell>
                <mxCell id="25" value="" style="endArrow=classic;html=1;fontSize=18;" edge="1" parent="1">
                    <mxGeometry width="50" height="50" relative="1" as="geometry">
                        <mxPoint x="680" y="290" as="sourcePoint"/>
                        <mxPoint x="410" y="290" as="targetPoint"/>
                    </mxGeometry>
                </mxCell>
                <mxCell id="26" value="&lt;b&gt;&lt;font style=&quot;font-size: 14px;&quot;&gt;Access&lt;/font&gt;&lt;/b&gt;" style="text;html=1;align=center;verticalAlign=middle;resizable=0;points=[];autosize=1;strokeColor=none;fillColor=none;" vertex="1" parent="1">
                    <mxGeometry x="238" y="165" width="70" height="30" as="geometry"/>
                </mxCell>
                <mxCell id="27" value="&lt;b&gt;&lt;font style=&quot;font-size: 14px;&quot;&gt;Fetch Data&lt;/font&gt;&lt;/b&gt;" style="text;html=1;align=center;verticalAlign=middle;resizable=0;points=[];autosize=1;strokeColor=none;fillColor=none;" vertex="1" parent="1">
                    <mxGeometry x="495" y="195" width="100" height="30" as="geometry"/>
                </mxCell>
                <mxCell id="28" value="&lt;b&gt;&lt;font style=&quot;font-size: 14px;&quot;&gt;From Cache&lt;/font&gt;&lt;/b&gt;" style="text;html=1;align=center;verticalAlign=middle;resizable=0;points=[];autosize=1;strokeColor=none;fillColor=none;" vertex="1" parent="1">
                    <mxGeometry x="495" y="260" width="100" height="30" as="geometry"/>
                </mxCell>
                <mxCell id="30" value="" style="endArrow=classic;html=1;fontSize=18;" edge="1" parent="1">
                    <mxGeometry width="50" height="50" relative="1" as="geometry">
                        <mxPoint x="410" y="320" as="sourcePoint"/>
                        <mxPoint x="150" y="320" as="targetPoint"/>
                    </mxGeometry>
                </mxCell>
                <mxCell id="31" value="&lt;b&gt;&lt;font style=&quot;font-size: 14px;&quot;&gt;Display Data&lt;/font&gt;&lt;/b&gt;" style="text;html=1;align=center;verticalAlign=middle;resizable=0;points=[];autosize=1;strokeColor=none;fillColor=none;" vertex="1" parent="1">
                    <mxGeometry x="220" y="290" width="110" height="30" as="geometry"/>
                </mxCell>
                <mxCell id="33" value="" style="endArrow=classic;html=1;fontSize=18;" edge="1" parent="1">
                    <mxGeometry width="50" height="50" relative="1" as="geometry">
                        <mxPoint x="150" y="375" as="sourcePoint"/>
                        <mxPoint x="410" y="375" as="targetPoint"/>
                    </mxGeometry>
                </mxCell>
                <mxCell id="34" value="&lt;b&gt;&lt;font style=&quot;font-size: 14px;&quot;&gt;Re Access&lt;/font&gt;&lt;/b&gt;" style="text;html=1;align=center;verticalAlign=middle;resizable=0;points=[];autosize=1;strokeColor=none;fillColor=none;" vertex="1" parent="1">
                    <mxGeometry x="230" y="340" width="90" height="30" as="geometry"/>
                </mxCell>
                <mxCell id="35" value="" style="endArrow=classic;html=1;fontSize=18;" edge="1" parent="1">
                    <mxGeometry width="50" height="50" relative="1" as="geometry">
                        <mxPoint x="406.9999999999998" y="430" as="sourcePoint"/>
                        <mxPoint x="147" y="430" as="targetPoint"/>
                    </mxGeometry>
                </mxCell>
                <mxCell id="36" value="&lt;b&gt;&lt;font style=&quot;font-size: 14px;&quot;&gt;From Cache&lt;/font&gt;&lt;/b&gt;" style="text;html=1;align=center;verticalAlign=middle;resizable=0;points=[];autosize=1;strokeColor=none;fillColor=none;" vertex="1" parent="1">
                    <mxGeometry x="223" y="400" width="100" height="30" as="geometry"/>
                </mxCell>
                <mxCell id="38" value="" style="rounded=1;whiteSpace=wrap;html=1;fontSize=14;" vertex="1" parent="1">
                    <mxGeometry x="421" y="420" width="176" height="60" as="geometry"/>
                </mxCell>
                <mxCell id="37" value="&lt;span style=&quot;font-size: 14px;&quot;&gt;&lt;b&gt;destory cache after 600s&lt;/b&gt;&lt;/span&gt;" style="text;html=1;align=center;verticalAlign=middle;resizable=0;points=[];autosize=1;strokeColor=none;fillColor=none;" vertex="1" parent="1">
                    <mxGeometry x="414" y="435" width="190" height="30" as="geometry"/>
                </mxCell>
            </root>
        </mxGraphModel>
    </diagram>
</mxfile>